<svg width="35" height="35" viewBox="0 0 35 35" fill="none" xmlns="http://www.w3.org/2000/svg">
<path d="M17.5 24.663C17.8662 24.663 18.2324 24.5166 18.4814 24.2383L29.834 12.622C30.083 12.373 30.2295 12.0508 30.2295 11.6845C30.2295 10.9229 29.6436 10.3369 28.8818 10.3369C28.5303 10.3369 28.1787 10.4834 27.9297 10.7177L17.5 21.3818L7.07032 10.7177C6.82126 10.4834 6.48438 10.3369 6.1182 10.3369C5.35645 10.3369 4.77051 10.9229 4.77051 11.6845C4.77051 12.0508 4.91701 12.373 5.16601 12.6367L16.5186 24.2383C16.7969 24.5166 17.1191 24.663 17.5 24.663Z" fill="white"/>
</svg>
