<svg width="36" height="37" viewBox="0 0 36 37" fill="none" xmlns="http://www.w3.org/2000/svg">
<g clip-path="url(#clip0_3_8)">
<path d="M18 0.578125C8.05645 0.578125 0 8.59961 0 18.5C0 28.4004 8.05645 36.4219 18 36.4219C27.9435 36.4219 36 28.4004 36 18.5C36 8.59961 27.9435 0.578125 18 0.578125ZM18 7.51562C21.5274 7.51562 24.3871 10.3629 24.3871 13.875C24.3871 17.3871 21.5274 20.2344 18 20.2344C14.4726 20.2344 11.6129 17.3871 11.6129 13.875C11.6129 10.3629 14.4726 7.51562 18 7.51562ZM18 32.375C13.7395 32.375 9.92177 30.4527 7.36694 27.4465C8.73145 24.8883 11.4024 23.125 14.5161 23.125C14.6903 23.125 14.8645 23.1539 15.0315 23.2045C15.975 23.508 16.9621 23.7031 18 23.7031C19.0379 23.7031 20.0323 23.508 20.9685 23.2045C21.1355 23.1539 21.3097 23.125 21.4839 23.125C24.5976 23.125 27.2685 24.8883 28.6331 27.4465C26.0782 30.4527 22.2605 32.375 18 32.375Z" fill="white"/>
</g>
<defs>
<clipPath id="clip0_3_8">
<rect width="36" height="37" fill="white"/>
</clipPath>
</defs>
</svg>
