<svg width="50" height="50" viewBox="0 0 50 50" fill="none" xmlns="http://www.w3.org/2000/svg">
<g clip-path="url(#clip0_6_214)">
<path d="M49.7618 24.8809C49.7618 11.1396 38.6223 0 24.8809 0C11.1396 0 0 11.1396 0 24.8809C0 38.6223 11.1396 49.7618 24.8809 49.7618C38.6223 49.7618 49.7618 38.6223 49.7618 24.8809Z" fill="url(#paint0_linear_6_214)"/>
<path d="M12.4405 36.3999L14.2257 29.7623C12.786 27.1765 12.3286 24.1593 12.9374 21.2641C13.5463 18.3689 15.1804 15.79 17.5401 14.0006C19.8998 12.2112 22.8267 11.3314 25.7838 11.5225C28.7408 11.7137 31.5296 12.963 33.6384 15.0413C35.7472 17.1195 37.0346 19.8873 37.2643 22.8367C37.494 25.7861 36.6507 28.7193 34.889 31.0981C33.1273 33.4768 30.5655 35.1415 27.6736 35.7867C24.7817 36.4319 21.7538 36.0144 19.1454 34.6107L12.4405 36.3999ZM19.4687 32.1268L19.8834 32.3724C21.7727 33.4904 23.9793 33.953 26.1596 33.6882C28.3397 33.4234 30.3709 32.4461 31.9366 30.9085C33.5023 29.3708 34.5146 27.3593 34.8156 25.1874C35.1166 23.0155 34.6896 20.8051 33.6009 18.9008C32.5123 16.9965 30.8233 15.5052 28.797 14.6593C26.7708 13.8135 24.5212 13.6605 22.3988 14.2243C20.2764 14.788 18.4004 16.0369 17.0632 17.7763C15.7259 19.5156 15.0026 21.6477 15.0058 23.8403C15.0041 25.6583 15.5077 27.4412 16.4607 28.9904L16.7207 29.4185L15.7227 33.1232L19.4687 32.1268Z" fill="black"/>
<path fill-rule="evenodd" clip-rule="evenodd" d="M29.5328 25.5452C29.2897 25.3494 29.0051 25.2117 28.7006 25.1424C28.3961 25.0731 28.0798 25.074 27.7758 25.1452C27.319 25.3347 27.0238 26.0503 26.7286 26.4082C26.6664 26.494 26.5749 26.5542 26.4714 26.5774C26.3678 26.6007 26.2594 26.5854 26.1664 26.5345C24.4939 25.8806 23.092 24.6813 22.1884 23.1315C22.1113 23.0348 22.0748 22.912 22.0866 22.789C22.0985 22.6659 22.1576 22.5523 22.2516 22.4719C22.5809 22.1465 22.8226 21.7436 22.9545 21.3002C22.9838 20.8112 22.8715 20.324 22.6312 19.8969C22.4454 19.2981 22.0917 18.7649 21.6121 18.3603C21.3647 18.2492 21.0904 18.212 20.8223 18.2531C20.5542 18.2942 20.3037 18.4118 20.101 18.5918C19.7492 18.8948 19.4701 19.2727 19.284 19.6977C19.0978 20.1228 19.0096 20.584 19.0258 21.0476C19.0268 21.3079 19.0599 21.5671 19.1241 21.8194C19.2873 22.4256 19.5383 23.0047 19.8691 23.5384C20.1078 23.9473 20.3682 24.3432 20.6492 24.7243C21.5626 25.976 22.7107 27.0388 24.0298 27.8536C24.6917 28.2677 25.3992 28.6044 26.1382 28.857C26.9059 29.2044 27.7535 29.3377 28.591 29.2428C29.0682 29.1708 29.5203 28.9827 29.9076 28.6951C30.2949 28.4076 30.6054 28.0295 30.812 27.594C30.9333 27.3309 30.9701 27.0368 30.9173 26.752C30.7909 26.1696 30.0107 25.8258 29.5328 25.5452Z" fill="black"/>
</g>
<defs>
<linearGradient id="paint0_linear_6_214" x1="0" y1="0" x2="56.9942" y2="10.4983" gradientUnits="userSpaceOnUse">
<stop stop-color="#3F5EFB"/>
<stop offset="1" stop-color="#FC466B"/>
</linearGradient>
<clipPath id="clip0_6_214">
<rect width="50" height="50" fill="white"/>
</clipPath>
</defs>
</svg>
