<svg width="38" height="33" viewBox="0 0 38 33" fill="none" xmlns="http://www.w3.org/2000/svg">
<path d="M16.0289 5.44353L25.0621 14.4891C25.5917 15.0194 25.8933 15.7487 25.8933 16.5C25.8933 17.2513 25.5917 17.9806 25.0621 18.5109L16.0289 27.5565C15.5581 28.0279 14.9255 28.2857 14.2634 28.2857C12.8878 28.2857 11.7697 27.1661 11.7697 25.7886V21.2143H2.35394C1.05192 21.2143 0 20.1609 0 18.8571V14.1429C0 12.8391 1.05192 11.7857 2.35394 11.7857H11.7697V7.21138C11.7697 5.83393 12.8878 4.71429 14.2634 4.71429C14.9255 4.71429 15.5581 4.97946 16.0289 5.44353ZM25.8933 28.2857H30.6012C31.9032 28.2857 32.9552 27.2324 32.9552 25.9286V7.07143C32.9552 5.76763 31.9032 4.71429 30.6012 4.71429H25.8933C24.5913 4.71429 23.5394 3.66094 23.5394 2.35714C23.5394 1.05335 24.5913 0 25.8933 0H30.6012C34.4999 0 37.663 3.16741 37.663 7.07143V25.9286C37.663 29.8326 34.4999 33 30.6012 33H25.8933C24.5913 33 23.5394 31.9467 23.5394 30.6429C23.5394 29.3391 24.5913 28.2857 25.8933 28.2857Z" fill="url(#paint0_linear_6_438)"/>
<defs>
<linearGradient id="paint0_linear_6_438" x1="0" y1="0" x2="42.7128" y2="8.97942" gradientUnits="userSpaceOnUse">
<stop stop-color="#3F5EFB"/>
<stop offset="1" stop-color="#FC466B"/>
</linearGradient>
</defs>
</svg>
