<svg width="18" height="18" viewBox="0 0 18 18" fill="none" xmlns="http://www.w3.org/2000/svg">
<path d="M4.87879 1H1V5H4.87879V1Z" stroke="url(#paint0_linear_6_442)"/>
<path d="M11.1819 1H6.81824V5H11.1819V1Z" stroke="url(#paint1_linear_6_442)"/>
<path d="M11.1819 13H6.81824V17H11.1819V13Z" stroke="url(#paint2_linear_6_442)"/>
<path d="M17 1H13.1212V5H17V1Z" stroke="url(#paint3_linear_6_442)"/>
<path d="M4.87879 7H1V11H4.87879V7Z" stroke="url(#paint4_linear_6_442)"/>
<path d="M11.1819 7H6.81824V11H11.1819V7Z" stroke="url(#paint5_linear_6_442)"/>
<path d="M17 7H13.1212V11H17V7Z" stroke="url(#paint6_linear_6_442)"/>
<path d="M4.87879 13H1V17H4.87879V13Z" stroke="url(#paint7_linear_6_442)"/>
<path d="M17 13H13.1212V17H17V13Z" stroke="url(#paint8_linear_6_442)"/>
<defs>
<linearGradient id="paint0_linear_6_442" x1="1" y1="1" x2="5.45124" y2="1.79507" gradientUnits="userSpaceOnUse">
<stop stop-color="#3F5EFB"/>
<stop offset="1" stop-color="#FC466B"/>
</linearGradient>
<linearGradient id="paint1_linear_6_442" x1="6.81824" y1="1" x2="11.7851" y2="1.99806" gradientUnits="userSpaceOnUse">
<stop stop-color="#3F5EFB"/>
<stop offset="1" stop-color="#FC466B"/>
</linearGradient>
<linearGradient id="paint2_linear_6_442" x1="6.81824" y1="13" x2="11.7851" y2="13.9981" gradientUnits="userSpaceOnUse">
<stop stop-color="#3F5EFB"/>
<stop offset="1" stop-color="#FC466B"/>
</linearGradient>
<linearGradient id="paint3_linear_6_442" x1="13.1212" y1="1" x2="17.5725" y2="1.79507" gradientUnits="userSpaceOnUse">
<stop stop-color="#3F5EFB"/>
<stop offset="1" stop-color="#FC466B"/>
</linearGradient>
<linearGradient id="paint4_linear_6_442" x1="1" y1="7" x2="5.45124" y2="7.79507" gradientUnits="userSpaceOnUse">
<stop stop-color="#3F5EFB"/>
<stop offset="1" stop-color="#FC466B"/>
</linearGradient>
<linearGradient id="paint5_linear_6_442" x1="6.81824" y1="7" x2="11.7851" y2="7.99806" gradientUnits="userSpaceOnUse">
<stop stop-color="#3F5EFB"/>
<stop offset="1" stop-color="#FC466B"/>
</linearGradient>
<linearGradient id="paint6_linear_6_442" x1="13.1212" y1="7" x2="17.5725" y2="7.79507" gradientUnits="userSpaceOnUse">
<stop stop-color="#3F5EFB"/>
<stop offset="1" stop-color="#FC466B"/>
</linearGradient>
<linearGradient id="paint7_linear_6_442" x1="1" y1="13" x2="5.45124" y2="13.7951" gradientUnits="userSpaceOnUse">
<stop stop-color="#3F5EFB"/>
<stop offset="1" stop-color="#FC466B"/>
</linearGradient>
<linearGradient id="paint8_linear_6_442" x1="13.1212" y1="13" x2="17.5725" y2="13.7951" gradientUnits="userSpaceOnUse">
<stop stop-color="#3F5EFB"/>
<stop offset="1" stop-color="#FC466B"/>
</linearGradient>
</defs>
</svg>
